<?xml version="1.0" encoding="utf-8"?>
<!-- Generator: Adobe Illustrator 22.0.1, SVG Export Plug-In . SVG Version: 6.00 Build 0)  -->
<svg version="1.1" id="Layer_1" xmlns="http://www.w3.org/2000/svg" xmlns:xlink="http://www.w3.org/1999/xlink" x="0px" y="0px"
	 viewBox="0 0 406.8 80.5" style="enable-background:new 0 0 406.8 80.5;" xml:space="preserve">
<style type="text/css">
	.st0{fill-rule:evenodd;clip-rule:evenodd;fill:#FF7A59;}
	.st1{fill-rule:evenodd;clip-rule:evenodd;fill:#FFFFFF;}
</style>
<g>
	<path class="st0" d="M56,19.3l4.9-1l2.2-0.5v2.3v3.2c1-1.1,2.2-2.1,3.5-2.8c2.9-1.6,6.4-2.3,10.6-2.3H80l-1.1,2.6l-2.1,5l-0.6,1.4
		l-1.4-0.2c-0.3-0.1-1-0.1-1.6-0.1c-2.3,0-4.9,1.6-6.9,4.5c-1.8,2.7-3.1,6.4-3.1,10.9v21.3v1.5l-1.5,0.3l-4.9,1l-2.2,0.5v-2.3V21.1
		v-1.5L56,19.3z"/>
	<path class="st0" d="M87,25.3c4.2-4.3,10-7.1,16.6-7.1c6.6,0,12.4,2.8,16.6,7.1c4.4,4.5,7,10.7,7,17.1c0,6.4-2.6,12.6-7,17.1
		c-4.2,4.3-10,7.1-16.6,7.1c-6.6,0-12.4-2.8-16.6-7.1c-4.4-4.5-7-10.7-7-17.1C80,36,82.6,29.8,87,25.3L87,25.3z M114.1,31.3
		c-2.7-2.7-6.3-4.5-10.5-4.5c-4.2,0-7.8,1.8-10.5,4.5c-2.8,2.9-4.5,6.8-4.5,11c0,4.1,1.7,8.1,4.5,11c2.7,2.7,6.3,4.5,10.5,4.5
		c4.2,0,7.8-1.8,10.5-4.5c2.8-2.9,4.5-6.8,4.5-11C118.6,38.2,116.9,34.2,114.1,31.3z"/>
	<path class="st0" d="M196.9,19.2h2.6v-8.6V9.6l1-0.5l4.9-2.7l2.8-1.5V8v11.3h9.7h1.9v1.9V26v1.9h-1.9h-9.7v24.4
		c0,2,0.4,3.4,1.2,4.1c0.9,0.8,2.4,1.1,4.6,1.1c0.8,0,1.5,0,1.9,0c0.6,0,1.2-0.1,1.8-0.1l2.1-0.3v2.1v4.6v1.5l-1.5,0.3
		c-0.7,0.1-1.4,0.3-2.2,0.4c-0.8,0.1-1.7,0.2-2.5,0.2c-4.4,0-7.8-1.3-10.3-3.7h0c-2.4-2.4-3.7-5.9-3.7-10.3V27.9h-3.8h-2.4l0.6-2.3
		l1.2-4.9l0.3-1.4H196.9z"/>
	<path class="st0" d="M236.9,36.1v27.5v1.6l-1.6,0.2l-4.9,0.7l-2.1,0.3v-2.1v-61V1.8l1.5-0.3l4.9-1l2.2-0.5v2.3v19.4
		c0.8-0.6,1.6-1.1,2.5-1.6c2.4-1.2,5.2-1.9,8.1-1.9c4.9,0,9.7,1.1,13.1,4.3c2.8,2.7,4.6,6.7,4.6,12.5v28.5v1.6l-1.6,0.2l-4.9,0.7
		l-2.1,0.3v-2.1V33.9c0-2.5-0.8-4.4-2.2-5.6l0,0c-1.5-1.3-3.8-2-6.7-2c-2.3,0-5.5,1-7.9,3.1C238.1,31,236.9,33.2,236.9,36.1z"/>
	<path class="st1" d="M280.9,36.1v27.5v0.5l-0.5,0.1l-4.9,0.7l-0.7,0.1v-0.7v-61V2.8l0.5-0.1l4.9-1l0.7-0.2v0.8v22.3
		c1.1-1.4,2.6-2.5,4.3-3.4c2.2-1.1,4.8-1.7,7.5-1.7c4.7,0,9.1,1,12.3,4c2.6,2.4,4.2,6.1,4.2,11.6v28.5v0.5l-0.5,0.1l-4.9,0.7L303,65
		v-0.7V33.9c0-2.9-0.9-5.1-2.6-6.6l0,0c-1.7-1.5-4.3-2.3-7.6-2.3c-2.5,0-6.1,1.1-8.7,3.4C282.3,30.3,280.9,32.8,280.9,36.1z"/>
	<path class="st1" d="M317.9,48.8V21.1v-0.5l0.5-0.1l4.9-1l0.7-0.2v0.8v28.2c0,3.7,0.7,6.5,2.3,8.4c1.5,1.9,4,2.9,7.4,2.9
		c3.8,0,6.9-0.7,9-3.3c2.2-2.7,3.4-7.6,3.4-16V21.1v-0.5l0.5-0.1l4.9-1l0.7-0.2v0.8v43.5v0.5l-0.5,0.1l-4.9,0.7l-0.7,0.1v-0.7v-5
		c-1.1,1.5-2.6,2.8-4.5,3.9c-2.3,1.3-5.2,2.1-8.4,2.1c-5.6,0-9.4-1.6-11.9-4.5C319,57.9,317.9,53.8,317.9,48.8z"/>
	<path class="st1" d="M367.2,58.8c-4.1-4.2-6.2-10.2-6.2-17.4V3.3V2.8l0.5-0.1l4.9-1l0.7-0.2v0.8v25.3c2.3-2.4,4.7-4.3,7.4-5.6l0,0
		c3.1-1.6,6.5-2.5,10.4-2.5c6.2,0,11.8,2.3,15.8,6.4c3.8,3.9,6.1,9.3,6.1,16c0,6.4-2.5,12.3-6.7,16.6c-4.1,4.2-9.7,6.8-16.1,6.8
		C376.8,65.2,371.1,62.9,367.2,58.8L367.2,58.8z M371.8,30.5c-3,3-4.8,7.3-4.8,12.2c0,4.7,1.9,8.7,4.9,11.6c3.1,3,7.5,4.7,12.2,4.7
		c4.8,0,8.7-1.7,11.6-4.6c2.9-3,4.7-7.2,4.9-12h0c0-4.9-1.7-9.2-4.7-12.2c-3-3-7.1-4.7-12-4.7C379.1,25.6,374.9,27.4,371.8,30.5z"/>
	<path class="st0" d="M27.4,16.6c-1.5-0.4-3-0.6-4.6-0.6v0c-2.5,0-4.9,0.5-7.1,1.4c-2.3,0.9-4.3,2.3-6.1,4.1l0,0
		c-1.7,1.7-3.1,3.8-4.1,6.1c-0.9,2.2-1.4,4.6-1.4,7.1c0,2.5,0.5,4.9,1.4,7.1c0.9,2.3,2.3,4.3,4,6.1l0,0l0,0c2,2,4.5,3.6,7.2,4.5
		c2.7,0.9,5.6,1.2,8.4,0.8l0.1,0l0.1,0c0.8,0.2,1.6,0.6,2.3,1c0.7,0.4,1.3,0.9,1.9,1.5l0,0c0.9,0.9,1.6,1.9,2.1,3.1
		c0.5,1.1,0.7,2.4,0.7,3.7c0,1.3-0.3,2.5-0.7,3.7c-0.5,1.2-1.2,2.2-2.1,3.1l0,0c-0.9,0.9-1.9,1.6-3.1,2.1h0C25.3,71.7,24,72,22.7,72
		c-1.4,0-2.8-0.3-4-0.9c-1.2-0.6-2.4-1.4-3.3-2.5l-0.1-0.1l0-0.1c0.2-0.7,0.2-1.3,0.2-2c0-1.8-0.6-3.4-1.6-4.8
		c-1-1.3-2.5-2.4-4.2-2.8c-0.6-0.2-1.3-0.2-2-0.2c-2.2,0-4.1,0.9-5.5,2.3h0C0.9,62.3,0,64.3,0,66.4c0,0.3,0,0.7,0.1,1
		c0.2,1.9,1.2,3.7,2.6,4.9c1.4,1.2,3.2,1.9,5.2,1.9c0.3,0,0.7,0,1-0.1l0.1,0l0.1,0.1c0.6,0.7,1.2,1.3,1.8,1.8c0.6,0.6,1.3,1.1,2,1.5
		v0c1.5,0.9,3,1.7,4.7,2.2c1.6,0.5,3.4,0.7,5.1,0.7c2.5,0,4.8-0.5,6.9-1.4c2.2-0.9,4.2-2.3,5.9-3.9c1.7-1.7,3-3.7,3.9-5.9
		c0.9-2.1,1.4-4.5,1.4-6.9c0-2.5-0.5-5-1.5-7.3c-1-2.3-2.5-4.3-4.3-6l-0.2-0.2l0.2-0.2c2-1.7,3.6-3.9,4.7-6.3c1.1-2.4,1.7-5,1.7-7.7
		h0c0-2.1-0.4-4.1-1-6c-0.7-1.9-1.6-3.7-2.9-5.4l-0.1-0.2l0.1-0.2l3.8-4.8l0.1-0.1l0.2,0c1.4,0.2,2.9,0.1,4.1-0.4
		c1.3-0.5,2.4-1.3,3.3-2.4l0,0l0,0c1.3-1.7,1.8-3.8,1.6-5.7c-0.2-2-1.2-3.9-2.9-5.2l0,0l0,0c-1.7-1.3-3.8-1.8-5.7-1.6
		c-2,0.2-3.9,1.2-5.2,2.9c-0.9,1.1-1.4,2.4-1.6,3.8c-0.2,1.4,0,2.8,0.6,4.1l0.1,0.1l-0.1,0.1L32,18.2l-0.1,0.2l-0.2-0.1
		C30.3,17.5,28.9,17,27.4,16.6L27.4,16.6L27.4,16.6z M26.2,26.2c1.1,0.5,2.1,1.1,3,2h0c0.8,0.8,1.5,1.8,2,2.9
		c0.4,1.1,0.7,2.2,0.7,3.5c0,1.2-0.2,2.4-0.7,3.5c-0.5,1.1-1.1,2.1-2,2.9l0,0l0,0c-0.8,0.8-1.8,1.5-2.9,2c-1.1,0.4-2.2,0.7-3.5,0.7
		c-1.2,0-2.4-0.2-3.5-0.7c-1.1-0.5-2.1-1.1-3-2l0,0c-0.8-0.8-1.5-1.8-2-3c-0.4-1.1-0.7-2.3-0.7-3.5c0-1.2,0.2-2.4,0.7-3.5
		c0.5-1.1,1.1-2.1,2-2.9h0c0.8-0.8,1.8-1.5,3-2c1.1-0.4,2.3-0.7,3.5-0.7C24,25.6,25.2,25.8,26.2,26.2z"/>
	<path class="st0" d="M176.3,8.2c3.2-0.7,6.3-1.3,9.5-2c0,14.9,0,29.9,0,44.8c0,3.4-0.5,7-2.1,9.9c-1.2,2.1-3,3.8-5.7,4.6v0
		c-1.8,0.5-4.7,0.8-7.6,0.8c-2.9,0-5.8-0.3-7.6-0.8l0,0c-0.4-0.1-0.8-0.3-1.2-0.4c-0.4-0.2-0.7-0.3-1.1-0.5l-0.7-0.4l-0.7,0.4
		c-0.3,0.2-0.7,0.4-1.1,0.5c-0.4,0.2-0.8,0.3-1.2,0.4l0,0c-1.8,0.5-4.7,0.8-7.6,0.8c-2.9,0-5.8-0.3-7.6-0.8v0
		c-2.8-0.8-4.6-2.4-5.7-4.5c-1.2-2.2-1.7-4.9-1.9-7.6c0-6.7,0-13.3,0-19.9c3.2-0.7,6.3-1.3,9.5-2c0,6.9,0,13.7,0,20.6l0,0.1l0,0.1
		c0.2,1.6,0.6,3.1,1.5,4.1c0.9,1.2,2.3,1.8,4.4,1.8v0c2,0,3.4-0.6,4.3-1.8c0.9-1.1,1.3-2.5,1.5-4.2l0-0.1v-0.1c0-10.8,0-21.5,0-32.2
		c3.2-0.7,6.3-1.3,9.5-2c0,11.4,0,22.8,0,34.2v0.1l0,0.1c0.2,1.7,0.6,3.1,1.5,4.1c0.9,1.2,2.3,1.8,4.4,1.8v0c2,0,3.4-0.6,4.3-1.8
		c0.9-1.1,1.3-2.5,1.6-4.2l0-0.1l0-0.1C176.3,37.5,176.3,22.8,176.3,8.2z"/>
</g>
</svg>
