<?xml version="1.0" encoding="utf-8"?>
<!-- Generator: Adobe Illustrator 21.0.0, SVG Export Plug-In . SVG Version: 6.00 Build 0)  -->
<svg version="1.1" id="Layer_1" xmlns="http://www.w3.org/2000/svg" xmlns:xlink="http://www.w3.org/1999/xlink" x="0px" y="0px"
	 viewBox="0 0 158.9 61.1" style="enable-background:new 0 0 158.9 61.1;" xml:space="preserve">
<style type="text/css">
	.st0{fill:#FFFFFF;}
</style>
<g>
	<path class="st0" d="M66.8,10.9c2.5,0.1,4.2,0.6,4.9,1.2c0.7,0.6,1.1,2.2,1.1,4.5v28.1c0,2.4-0.4,3.9-1.1,4.5
		c-0.7,0.6-2.4,1-4.9,1.1v1.2h18.4v-1.2c-2.5-0.1-4.1-0.5-4.9-1.1c-0.7-0.6-1.1-2.1-1.1-4.5V16.6c0-2.3,0.4-3.9,1.1-4.5
		c0.8-0.6,2.4-1.1,4.9-1.2V9.8H66.8V10.9z"/>
	<path class="st0" d="M123.9,49.4c-0.7-0.5-1.6-1.1-2.4-2.1l-12.7-16c3.5-0.6,6.1-1.7,8.2-3.4c2-1.7,3-4,3-7.2
		c0-4.6-2.3-7.9-6.7-9.6c-2.4-1-5.4-1.3-9-1.3H86.9v1.1c2.3,0.2,3.7,0.6,4.3,1.3c0.7,0.7,1.1,2.1,1.1,4.4v27.2c0,2.7-0.4,4.4-1,5.1
		c-0.6,0.6-2,1.1-4.4,1.3v1.2h17.3v-1.2c-2.4-0.1-3.8-0.6-4.6-1.2c-0.7-0.6-1.1-2.1-1.1-4.4V32.2l3.5-0.1l14.8,19.4h8.9l-0.2-1.4
		C125,50,124.4,49.8,123.9,49.4z M98.6,29.9V14.3c0-1,0.2-1.5,0.6-1.7c0.4-0.4,1.4-0.5,3.2-0.5c2.6,0,4.7,0.4,6.3,1.1
		c3,1.3,4.4,3.9,4.4,7.5c0,3.9-1.7,6.5-4.9,7.8C106.3,29.2,103,29.7,98.6,29.9z"/>
	<path class="st0" d="M150,34.3c-1.4-1.8-3.8-3.8-7.2-6l-5.5-3.3c-2-1.3-3.5-2.6-4.5-3.8c-1-1.1-1.4-2.4-1.4-4.2
		c0-1.7,0.6-3.2,1.8-4.2c1.3-1.1,2.8-1.6,4.4-1.6c2.2,0,4.5,0.9,6.6,2.4c2.3,1.6,4,4.4,4.9,8.4h1.4l-1.3-13.4h-1.3
		c-0.1,0.7-0.4,1.2-0.6,1.6c-0.4,0.4-0.8,0.6-1.7,0.6c-0.2,0-1.3-0.4-3.4-1.1c-2-0.7-3.7-1.1-5.1-1.1c-3.5,0-6.3,1.1-8.3,3.2
		c-2.2,2.2-3.1,4.8-3.1,7.9c0,2.4,0.8,4.6,2.6,6.6c0.8,1.1,2.2,2.1,3.7,3.2l5.3,3.3c3.1,2,5.2,3.4,6,4.4c1.6,1.5,2.3,3.3,2.3,5.4
		c0,2.3-0.7,4-2.3,5.4c-1.3,1.2-3.1,1.8-5.1,1.8c-3.7,0-6.7-1.5-9.3-4.4c-1.3-1.7-2.6-3.9-3.6-6.7h-1.4l1.5,11.3
		c0.4,0.1,0.8,0.2,1.3,0.2v1.2h-1.1l0.1,0.7h1.4c0-0.6,0.2-1.1,0.5-1.5c0.2-0.5,0.7-0.7,1.4-0.7c0.2,0,1.4,0.4,3.6,1.1
		c2,0.7,4.1,1.1,6,1.1c3.8,0,7-1.1,9.4-3.3c2.5-2.2,3.7-5,3.7-8.3C152,38.2,151.3,36.1,150,34.3z"/>
	<path class="st0" d="M126.9,50.3c-0.5,0-0.9-0.1-1.3-0.2l0.2,1.4h1.1V50.3z"/>
	<path class="st0" d="M57,13.4c-0.6-1-6.7-3.9-15.6-5.7c-3.6,4-3.6,5.6-3.7,6.2c-0.1,0.6,1.2,2.3,2.5,4c2.4,3.2,3.1,3.8,3.5,4.8
		c0.7,1.7-0.5,5.9-1.3,9.6c0-0.1-2.2-8.1-3.1-13.2c-0.1-0.5,0-0.7,0-0.7c-5.4-0.5-9.1-0.7-9.7,2.1c-2.5,0-3.7,0.7-4,1.2
		c-0.6,1.1,0.1,3.3,0.6,4.4c0.4-0.9,2.5-0.7,3.2-0.7c0.4,0.1,0.4,0.2,0.5,0.5v10.7h-6.5l-5.5,15.1c2.5,1.2,5.3,2.2,7,2.2
		s5.9-2.2,6.5-2.2c0.5,0,4.7,2.2,6.4,2.2c1.7,0,4.4-0.9,7-2.2l-5.5-15.1c0,0-5.7,0-6.5,0c0-2.4,0-7.8,0-10.3
		c-0.1-0.6-0.4-0.9-0.6-0.9l3.2-0.1c-0.5-1.8-1.1-3.2-2-3.3c0.2-0.4,0.5-0.6,0.8-0.9h-2.5c0.2-1.3,3.5-0.9,4.9-0.7
		c1.4,7.2,4.2,17,4.3,17.1c0.1,0.1,2.4,1,2.6,1.1c1.3-2.9,3.4-11.5,3.5-13.6c1.7,0.6,1.1,2.8,0.7,5.1c-1.9,11.7-3.5,15.3-3.8,17.5
		c1.7-0.4,2.6-0.7,2.9-0.9c0.2-0.4,1-2.3,1.7-4.5c1-3.2,2.5-11.2,2.5-14.4c0-0.7-0.7-1.6-1.8-2.1c0,0,0.6-1,0.8-1.7
		c0.4-0.7,0.7-2.2,0.7-2.2c0.7,0.2,1.2,0.5,1.3,1.2c0.4,3.1,0.2,3.3-0.2,9c0,1.7-0.7,5.4-1.3,9.2c-1.2,6.8-2.4,9.8-2.4,10.9
		c1.8-0.6,3.2-1.1,3.4-1.3c0.1-0.2,1.4-3.5,2.4-8.6c0.4-2.2,0.6-4.3,1-6.5c0.5-2.9,0.6-6,0.6-8.4c0-3.7,0.5-3.7-2.3-5.1
		c1.1-2.9,0.8-4.9,0.6-5.5c-0.5-1-1-1-3.4-0.9c0.8,0.9,0.6,2.4,0.4,3.4c-0.5-0.4-0.2-1.1-2.8-1c-0.4-4.2-1.2-4.6-1.2-4.8
		c-0.4-0.5-2.5-0.2-3.1,0c0.5,0.4,1.4,3.5,1,4.9c-0.2-0.4-3.8-4.5-3.6-5.3c0.2-0.5,0.5-1,1.7-2.4c4.2,0.9,11.3,3.5,11.8,4.3
		c0.4,1,0.8,2.1,1.1,3.7c0.4,2.4,1.1,8.1,0.7,16.7c-0.4,9-1.6,14-1.4,13.8c1.3-0.4,3.4-2.4,3.6-2.9c0.6-1.5,0.8-6.7,1-11.5
		C59.5,30,59,24,58.8,21.7C58.1,16.1,57.7,14.6,57,13.4z M24.8,50.8c-1.3,0-3.2-0.2-3.2-0.2l3.2-9.5l3,9.5
		C27.8,50.5,26,50.8,24.8,50.8z M40.9,50.5c0,0-1.9,0.2-3.2,0.2c-1.1,0-3-0.2-3-0.2l3-9.5L40.9,50.5z M32.6,43.2v-3.7h2.8l-4.2,11.8
		L27,39.6h2.8v2.6c0,0,0,0.2,0.1,0.2c0.4,0.2,0.5,0.2,0.5,0.2L32.6,43.2z M32.9,23.9h-4.8c-0.4-1.2,0-1.5,1.1-1.6
		C31.1,22.2,32.8,22.2,32.9,23.9z M46.6,18.7c1.7-0.2,1,2.9,0.5,4.2c-0.7-1.5-1.2-2.4-2.3-3.8C45.4,18.8,45.9,18.8,46.6,18.7z"/>
	<path class="st0" d="M15.3,45.1c0.8-1,3.8-4,4.3-5.7c0.5-2,1-6.8,1-7.9c0,0-3,2.1-4.5,3.7c-0.7,0.7-1.6,2-1.6,2
		c-0.4-1.7,0.1-3.7,0.8-4.8c1-1.7,4.6-4.8,5.1-6.1c0.8-2.1,0.7-3.9,1.3-6.1c-2.4,0.9-5.4,2.7-6.9,4.3c-0.1-2.4,0.6-4.2,2.2-5.4
		c2.3-1.8,5.4-2.8,7.3-3.4c1.7-0.5,4.5-1,5.8-1.7c2.5-1.2,4.9-4.8,5.5-6.6c-0.8,0-3.8-0.1-6.7,1c-1.1,0.5-1.6,1.5-2,2.3
		c-0.5,0.7-1,1.5-1.4,2.1c-1.2,1.8-2.6,2.7-4.4,3.2c0-0.1,1.2-0.9,2-2.7c0.7-1.6,1.6-4.6,1.6-4.9c-1.6,0.2-2.5,0.7-4.2,1.3
		c-1.7,0.7-2.3,1.5-2.6,2.2c-1.2,1.8-0.8,7-3.2,8.9c0.1-2.7,0.7-5.6-0.2-8.9c-4.8,2-5.8,3.7-5.4,5.7c0.5,2.8,3.5,4,4.8,6.4
		c0.5,0.7,0.6,1.7,0.6,1.7c0.1,0-1,1.3-0.6,4c0,0-1-2-1.9-3.2c-1.4-1.8-4.2-4.8-4.2-4.8c-0.6,7.5,0.4,9,0.7,9.6c1,1.6,4.4,4,5.2,5.6
		c0.4,0.7,0.5,1,0.5,1c0.1,0.2-0.7,1.2-0.6,2.6c0.1,0.5,0.2,1,0.4,1.7c0,0-1.1-1.6-2.5-3.2c-1.2-1.5-3.7-3.3-3.8-3.3
		c-0.1,0.9,0.4,5,0.5,5.7c0.2,2.1,0.4,4,2.2,5.9c1.4,1.5,6.3,3.5,7.3,3.9c0,0-0.2-1-0.7-2.3C16.1,47.4,15.3,45.1,15.3,45.1z"/>
</g>
</svg>
