<?xml version="1.0" standalone="no"?>
<!DOCTYPE svg PUBLIC "-//W3C//DTD SVG 20010904//EN"
 "http://www.w3.org/TR/2001/REC-SVG-20010904/DTD/svg10.dtd">
<svg version="1.0" xmlns="http://www.w3.org/2000/svg"
 width="550.000000pt" height="550.000000pt" viewBox="0 0 550.000000 550.000000"
 preserveAspectRatio="xMidYMid meet">
<metadata>
Created by potrace 1.11, written by Peter Selinger 2001-2013
</metadata>
<g transform="translate(0.000000,550.000000) scale(0.100000,-0.100000)"
fill="#000000" stroke="none">
<path d="M1240 4030 l0 -930 205 0 205 0 2 361 3 362 275 -359 276 -359 227
-3 227 -2 0 54 0 54 -268 328 -269 329 71 34 c50 24 91 55 141 105 111 112
155 226 155 406 0 227 -96 393 -280 483 -125 62 -167 67 -592 67 l-378 0 0
-930z m651 570 c101 -28 153 -105 152 -224 -1 -85 -25 -141 -75 -179 -50 -37
-93 -48 -210 -54 l-108 -6 0 243 0 243 103 -6 c56 -4 118 -11 138 -17z"/>
<path d="M3560 3553 c-325 -55 -628 -285 -761 -580 -61 -133 -74 -202 -74
-383 1 -153 3 -171 29 -250 109 -328 355 -566 691 -666 75 -22 115 -27 240
-31 173 -5 294 13 430 66 88 34 191 92 188 107 -1 5 -40 88 -87 185 l-86 176
-72 -37 c-99 -52 -184 -73 -294 -72 -121 0 -192 16 -292 63 -205 98 -321 314
-291 541 22 169 135 322 291 397 100 47 171 63 292 63 110 1 195 -20 294 -72
l72 -37 86 176 c47 97 86 180 87 185 3 15 -100 73 -188 107 -121 47 -254 69
-403 68 -70 -1 -138 -4 -152 -6z"/>
</g>
</svg>
