<?xml version="1.0" standalone="no"?>
<!DOCTYPE svg PUBLIC "-//W3C//DTD SVG 20010904//EN"
 "http://www.w3.org/TR/2001/REC-SVG-20010904/DTD/svg10.dtd">
<svg version="1.0" xmlns="http://www.w3.org/2000/svg"
 width="550.000000pt" height="550.000000pt" viewBox="0 0 550.000000 550.000000"
 preserveAspectRatio="xMidYMid meet">
<metadata>
Created by potrace 1.11, written by Peter Selinger 2001-2013
</metadata>
<g transform="translate(0.000000,550.000000) scale(0.100000,-0.100000)"
fill="#000000" stroke="none">
<path d="M1071 5278 c-233 -711 -991 -3056 -990 -3068 0 -18 2639 -1935 2664
-1935 25 0 2664 1917 2664 1935 1 12 -757 2357 -990 3068 l-21 62 -1653 0
-1653 0 -21 -62z m3675 -1553 c352 -1083 469 -1453 460 -1462 -6 -6 -558 -408
-1226 -893 -668 -485 -1219 -886 -1225 -890 -11 -8 -2481 1782 -2479 1797 2
10 923 2849 935 2881 l9 22 1527 -2 1527 -3 472 -1450z"/>
<path d="M1240 4030 l0 -930 205 0 205 0 2 365 3 364 250 -325 c138 -179 263
-343 278 -365 l28 -39 225 0 224 0 0 53 c-1 56 4 49 -252 358 -101 122 -275
336 -281 346 -4 6 25 26 71 48 194 96 296 283 288 530 -9 263 -147 433 -406
501 -80 21 -107 22 -462 23 l-378 2 0 -931z m578 586 c132 -12 214 -80 228
-192 15 -121 -28 -215 -116 -253 -54 -23 -136 -37 -220 -36 l-55 0 -3 245 -2
245 52 -2 c29 -1 81 -4 116 -7z"/>
<path d="M3569 3550 c-393 -66 -721 -356 -820 -725 -33 -123 -34 -320 -2 -440
28 -108 86 -233 148 -319 50 -70 167 -189 232 -235 106 -76 281 -152 403 -176
77 -15 264 -15 361 0 143 21 318 85 387 142 l24 19 -89 182 c-79 163 -91 181
-103 167 -13 -16 -104 -61 -140 -70 -8 -2 -38 -11 -67 -19 -50 -13 -228 -16
-278 -3 -80 20 -116 32 -165 57 -213 108 -329 354 -275 585 33 145 127 271
254 343 92 51 177 73 303 77 124 4 208 -14 311 -68 34 -17 65 -33 69 -35 3 -2
45 77 93 175 l87 177 -24 19 c-70 57 -235 118 -388 144 -49 8 -276 10 -321 3z"/>
</g>
</svg>
